<?xml version="1.0" encoding="UTF-8"?>
<!-- Generator: Adobe Illustrator 18.1.1, SVG Export Plug-In . SVG Version: 6.00 Build 0)  -->
<svg version="1.1" id="Réteg_1" xmlns="http://www.w3.org/2000/svg" xmlns:xlink="http://www.w3.org/1999/xlink" x="0px" y="0px" width="62px" height="43px" viewBox="0 0 62 43" enable-background="new 0 0 62 43" xml:space="preserve">
<path fill="#0A3F62" d="M36.7,32.2c0-0.5,0.1-0.9,0.2-1.4H7.7c-2.4,0-4.3-1.9-4.3-4.3v-9.4h47.2v1H54V7.7C54,3.4,50.5,0,46.3,0H7.7  C3.5,0,0,3.4,0,7.7v18.9c0,4.2,3.5,7.7,7.7,7.7h29V32.2z M3.4,7.7c0-2.4,1.9-4.3,4.3-4.3h38.6c2.4,0,4.3,1.9,4.3,4.3v0.6H3.4V7.7z"/>
<path fill="#0A3F62" d="M59.8,30h-0.6v-5.2c0-2.5-2-4.4-4.5-4.4h-8.3c-2.5,0-4.5,2-4.5,4.4V30h-0.6C40,30,39,31,39,32.2v8.6  c0,1.2,1,2.2,2.2,2.2h18.5c1.2,0,2.2-1,2.2-2.2v-8.6C62,31,61,30,59.8,30z M45.1,24.8c0-0.7,0.6-1.3,1.3-1.3h8.3  c0.7,0,1.3,0.6,1.3,1.3V30H45.1V24.8z"/>
</svg>