<?xml version="1.0" encoding="UTF-8"?>
<!-- Generator: Adobe Illustrator 18.1.1, SVG Export Plug-In . SVG Version: 6.00 Build 0)  -->
<svg version="1.1" id="Réteg_1" xmlns="http://www.w3.org/2000/svg" xmlns:xlink="http://www.w3.org/1999/xlink" x="0px" y="0px" width="54px" height="54px" viewBox="0 0 54 54" enable-background="new 0 0 54 54" xml:space="preserve">
<path fill="#0A3F62" d="M27,2.5c13.5,0,24.5,11,24.5,24.5c0,13.5-11,24.5-24.5,24.5c-13.5,0-24.5-11-24.5-24.5  C2.5,13.5,13.5,2.5,27,2.5 M27,0C12.1,0,0,12.1,0,27c0,14.9,12.1,27,27,27c14.9,0,27-12.1,27-27C54,12.1,41.9,0,27,0L27,0z"/>
<path fill="#0A3F62" d="M25.9,37.8c-1.2,1.4-3.2,1.5-4.6,0.2l-7.9-7.7c-1.3-1.3-1.4-3.3-0.3-4.5c1.2-1.2,3.2-1.1,4.5,0.2l3.2,3.1  c1.3,1.3,3.4,1.2,4.6-0.2l10.6-12.6c1.2-1.4,3.2-1.7,4.5-0.6c1.3,1.1,1.3,3.1,0.2,4.5L25.9,37.8z"/>
</svg>